<?xml version="1.0" standalone="no"?>
<!DOCTYPE svg PUBLIC "-//W3C//DTD SVG 20010904//EN"
 "http://www.w3.org/TR/2001/REC-SVG-20010904/DTD/svg10.dtd">
<svg version="1.0" xmlns="http://www.w3.org/2000/svg"
 width="1224.000000pt" height="650.000000pt" viewBox="0 0 1224.000000 650.000000"
 preserveAspectRatio="xMidYMid meet">
<metadata>
Created by potrace 1.13, written by Peter Selinger 2001-2015
</metadata>
<g transform="translate(0.000000,650.000000) scale(0.100000,-0.100000)"
fill="#000000" stroke="none">
<path d="M11067 6478 c-8 -12 -23 -47 -32 -77 -27 -83 -20 -139 54 -421 30
-113 38 -184 23 -206 -4 -7 -34 -27 -67 -44 -33 -18 -75 -44 -93 -58 -19 -13
-37 -20 -42 -16 -5 5 -24 61 -42 124 -27 96 -33 131 -33 215 1 76 5 108 18
133 10 17 13 32 8 32 -16 0 -29 -24 -51 -95 -16 -54 -20 -83 -15 -125 7 -60
36 -185 60 -265 15 -49 15 -50 -6 -65 -168 -113 -380 -312 -451 -425 -66 -105
-88 -163 -88 -238 0 -83 32 -132 111 -168 50 -22 66 -24 199 -23 122 1 160 6
240 27 182 49 282 87 450 171 313 155 565 351 723 561 75 100 107 169 114 244
7 75 -9 123 -55 161 -49 41 -111 59 -212 62 l-85 3 1 81 c1 59 6 87 19 107 21
32 16 45 -7 20 -19 -22 -58 -144 -58 -183 0 -26 -4 -28 -67 -41 -38 -8 -72
-14 -77 -14 -12 0 -50 136 -72 255 -15 80 -14 141 2 200 7 22 5 23 -8 12 -21
-17 -38 -88 -38 -160 0 -48 36 -219 66 -316 4 -10 2 -16 -3 -13 -10 6 -96 -18
-181 -52 -29 -12 -55 -21 -59 -21 -13 0 5 150 21 176 12 17 14 25 5 22 -15 -5
-20 -14 -48 -87 -12 -29 -21 -75 -21 -102 0 -37 -3 -47 -14 -43 -8 3 -32 -4
-55 -15 -22 -12 -44 -21 -48 -21 -4 0 -6 22 -5 49 2 27 -1 74 -8 105 -6 31
-10 57 -8 59 2 2 -3 11 -11 20 -7 10 -11 17 -8 17 3 0 -7 48 -23 108 -35 126
-41 262 -14 313 19 37 12 50 -9 17z"/>
<path d="M9535 5860 c-813 -4 -1111 -9 -1142 -18 -80 -23 -158 -55 -166 -68
-4 -8 -15 -14 -23 -14 -25 0 -116 -65 -170 -121 -59 -63 -124 -157 -124 -181
0 -10 -4 -18 -8 -18 -5 0 -19 -40 -30 -88 l-22 -88 0 -1743 c0 -1551 2 -1750
16 -1814 49 -223 227 -410 468 -492 134 -46 130 -46 1757 -42 l1534 3 79 23
c261 75 418 211 509 441 l21 55 3 1714 3 1715 -22 -21 c-21 -18 -139 -101
-163 -113 -39 -20 -85 -54 -85 -62 0 -5 -4 -7 -9 -4 -5 4 -11 3 -13 -1 -1 -5
-23 -18 -48 -31 -25 -13 -63 -34 -85 -47 -200 -122 -558 -283 -790 -355 -55
-17 -113 -37 -130 -43 -16 -7 -33 -11 -38 -9 -4 1 -42 -7 -85 -18 -214 -55
-500 -77 -632 -49 -29 6 -57 12 -63 13 -43 10 -169 71 -194 94 -129 125 -138
312 -24 535 73 141 139 233 287 394 116 127 326 309 492 427 26 19 29 24 15
27 -10 2 -513 2 -1118 -1z m-1335 -827 c36 -27 124 -94 195 -150 182 -140 231
-170 306 -190 78 -20 126 -11 214 43 30 18 56 29 57 26 0 -4 2 -11 3 -17 2 -5
3 -220 4 -477 l1 -468 307 0 c301 0 307 0 288 -19 -11 -10 -107 -78 -214 -151
l-193 -133 -106 -4 c-59 -2 -108 -6 -111 -9 -2 -2 -5 -316 -5 -697 -1 -646 0
-696 17 -752 62 -200 267 -394 560 -528 31 -14 57 -28 57 -30 0 -14 -403 33
-550 64 -134 27 -215 56 -287 101 -117 74 -201 191 -238 333 -23 87 -34 376
-35 938 0 541 0 545 -60 566 -21 7 -112 11 -242 11 l-209 0 93 91 c51 50 120
114 153 143 76 65 81 71 109 131 44 96 106 390 106 502 0 77 -51 336 -76 390
-30 63 -110 187 -173 268 -57 73 -71 95 -50 79 8 -6 43 -33 79 -61z m1530
-916 c161 -105 327 -190 404 -208 49 -11 73 -9 193 9 432 68 687 80 871 41
221 -47 383 -164 462 -333 83 -176 90 -248 90 -949 0 -471 2 -570 16 -635 30
-145 91 -256 211 -384 93 -99 63 -130 -68 -68 -110 51 -224 58 -389 25 -60
-13 -153 -25 -515 -72 -98 -12 -207 -17 -365 -17 -272 0 -379 18 -519 85 -74
36 -100 56 -186 143 -120 121 -162 197 -195 351 -30 135 -30 256 -1 359 44
157 133 316 234 417 142 142 305 212 727 309 146 34 303 70 349 81 90 22 111
20 111 -9 0 -13 -26 -34 -86 -68 -153 -87 -416 -253 -494 -311 -256 -191 -351
-378 -320 -630 19 -155 82 -255 218 -345 136 -92 217 -118 368 -118 207 0 335
84 381 250 16 60 18 118 18 705 0 589 -1 645 -18 704 -40 142 -110 235 -213
285 -161 79 -359 73 -649 -21 -135 -43 -163 -60 -221 -131 -62 -76 -109 -174
-185 -384 l-64 -178 -7 163 c-15 344 -62 608 -137 762 -34 70 -83 146 -163
250 -12 16 -16 25 -8 20 8 -5 76 -49 150 -98z"/>
<path d="M2320 4812 c-44 -44 -95 -91 -114 -105 -19 -15 -41 -34 -50 -43 -9
-8 -16 -13 -16 -9 0 3 -10 -1 -23 -9 -98 -65 -286 -77 -492 -33 -66 14 -151
33 -190 42 -243 55 -310 66 -420 72 -75 3 -137 1 -165 -6 -51 -13 -72 -18
-115 -27 -34 -7 -143 -60 -201 -97 -66 -42 -181 -159 -229 -231 -24 -38 -42
-72 -40 -76 3 -5 1 -10 -5 -12 -16 -5 -51 -106 -71 -208 -65 -337 48 -609 338
-809 73 -51 128 -82 139 -80 4 0 10 -4 13 -9 6 -11 160 -84 201 -97 26 -7 42
-14 146 -59 34 -14 69 -26 77 -26 9 0 18 -4 21 -9 3 -4 34 -18 68 -31 35 -12
87 -33 116 -46 29 -13 57 -24 63 -24 11 0 289 -140 299 -150 3 -3 18 -12 33
-19 15 -8 55 -39 88 -69 46 -42 69 -74 102 -141 l42 -86 0 -145 c0 -145 0
-145 -34 -214 -118 -241 -444 -342 -807 -251 -82 21 -214 90 -289 153 -62 51
-169 181 -202 245 -9 18 -21 35 -27 39 -6 4 -8 8 -4 8 4 0 -4 21 -17 48 -27
54 -48 102 -49 117 -1 6 -10 37 -20 70 -42 134 -47 154 -56 207 -14 92 -30
138 -45 138 -8 0 -17 -10 -20 -22 -3 -13 -9 -165 -14 -338 -10 -329 -12 -349
-69 -530 -19 -61 -71 -179 -110 -245 -19 -34 -108 -151 -134 -177 -50 -50 -38
-87 15 -47 18 13 61 43 97 66 36 24 70 48 77 53 7 6 18 10 25 10 8 0 23 7 35
15 11 8 56 26 99 41 134 45 293 43 454 -5 227 -67 442 -104 605 -103 253 2
460 51 590 141 389 268 509 642 344 1074 -18 45 -40 94 -50 109 -11 14 -19 30
-19 34 0 31 -204 264 -231 264 -4 0 -14 6 -21 13 -25 24 -123 83 -168 101 -25
10 -63 27 -85 36 -94 42 -117 50 -125 45 -4 -3 -10 -1 -12 5 -1 5 -34 21 -73
35 -176 65 -314 114 -357 126 -27 7 -48 17 -48 21 0 4 -7 8 -15 8 -19 0 -287
99 -299 111 -6 5 -16 9 -22 9 -21 0 -127 75 -171 121 -89 92 -127 217 -105
351 7 40 14 78 16 83 13 43 84 156 116 183 41 36 128 86 178 104 81 29 281 28
407 -1 50 -11 101 -22 115 -24 14 -2 36 -9 50 -14 207 -86 276 -128 374 -228
27 -27 60 -74 74 -104 22 -48 25 -71 31 -227 3 -95 9 -175 12 -179 6 -5 42 86
95 240 34 99 52 151 83 233 17 46 29 88 25 93 -3 5 -2 9 3 9 4 0 15 19 25 43
9 23 28 73 43 111 15 38 31 77 35 85 4 9 29 66 55 126 26 61 58 131 72 158 13
26 21 47 18 47 -4 0 -42 -35 -85 -78z"/>
<path d="M2609 4121 c23 -34 45 -61 50 -61 4 0 8 -6 8 -12 0 -7 13 -35 29 -63
43 -72 59 -120 103 -305 22 -89 42 -278 48 -443 l6 -168 17 38 c9 21 27 70 39
108 12 39 26 79 30 90 24 58 31 75 60 133 86 172 154 237 292 278 27 8 51 15
54 14 3 0 20 6 38 13 17 8 48 17 67 20 19 4 46 9 60 12 104 20 143 25 209 25
143 -1 290 -57 362 -139 44 -49 89 -125 89 -150 0 -9 6 -27 13 -41 7 -14 15
-43 17 -65 3 -22 5 -332 5 -690 l0 -650 -27 -62 c-37 -87 -62 -120 -123 -159
-95 -60 -244 -79 -398 -50 -112 22 -229 87 -330 184 -87 85 -128 203 -126 370
1 171 47 276 184 416 93 96 143 134 320 246 72 45 146 92 165 105 19 12 37 22
40 21 3 0 19 9 37 22 17 12 34 22 37 22 5 0 113 66 125 77 3 2 0 8 -7 15 -11
11 -53 3 -367 -72 -66 -16 -172 -41 -235 -55 -63 -15 -124 -30 -135 -35 -11
-5 -54 -21 -95 -36 -177 -64 -311 -154 -399 -267 -70 -91 -153 -267 -180 -379
-35 -147 14 -420 97 -542 110 -162 270 -281 432 -320 170 -41 510 -46 745 -12
55 8 132 17 170 20 39 4 111 14 160 22 50 8 104 16 120 18 17 2 41 6 55 10
139 34 294 25 391 -24 98 -49 154 -35 92 22 -100 90 -173 202 -225 345 -21 56
-22 79 -29 703 -8 686 -11 734 -61 875 -23 66 -79 164 -118 209 -40 46 -135
115 -193 140 -29 13 -91 34 -137 47 -79 22 -102 24 -325 23 -245 0 -273 -3
-615 -60 -110 -18 -154 -14 -253 27 -40 16 -78 29 -84 29 -7 0 -13 4 -13 8 0
5 -12 15 -27 22 -16 8 -58 33 -94 57 -37 24 -71 43 -77 43 -6 0 -12 4 -14 9
-1 4 -29 25 -62 46 l-58 37 41 -61z"/>
<path d="M4957 4048 c-2 -7 24 -43 59 -80 35 -37 71 -80 81 -95 10 -16 21 -31
25 -34 19 -13 118 -225 130 -277 10 -46 12 -299 10 -1307 -2 -776 -7 -1265
-13 -1290 -9 -40 -57 -151 -72 -170 -37 -47 -192 -260 -192 -264 0 -3 -9 -15
-20 -27 -28 -30 -55 -63 -55 -69 0 -3 30 17 68 43 37 27 99 69 137 93 39 24
73 47 76 52 3 5 9 8 13 8 10 -1 40 12 56 24 16 12 115 51 215 84 33 11 98 23
145 26 73 6 104 3 210 -20 69 -15 133 -32 143 -37 24 -12 22 5 -4 28 -60 54
-134 198 -161 315 -14 58 -19 729 -6 760 5 14 18 6 65 -40 70 -68 156 -122
241 -151 166 -55 573 -24 713 55 24 13 63 34 87 46 23 12 42 25 42 31 0 5 4 7
8 4 10 -6 82 44 163 114 66 56 163 163 206 227 77 113 153 319 173 466 14 111
12 326 -5 432 -19 122 -35 173 -88 286 -15 31 -27 59 -27 62 0 19 -122 180
-173 229 -55 53 -204 141 -277 163 -14 4 -43 16 -65 26 -22 10 -80 30 -128 43
-208 60 -402 70 -697 36 -314 -37 -452 -29 -660 35 -119 37 -345 141 -384 176
-14 13 -34 11 -39 -3z m1590 -421 c133 -47 202 -110 277 -257 84 -162 116
-322 116 -580 -1 -357 -75 -613 -239 -821 -76 -97 -175 -149 -322 -170 -122
-17 -208 -3 -283 45 -113 72 -230 202 -260 291 -20 57 -31 248 -41 765 -8 361
-3 415 46 517 51 105 161 186 312 228 84 24 302 14 394 -18z"/>
<path d="M3910 1183 c0 -7 9 -13 19 -13 55 0 63 -29 37 -137 -8 -32 -24 -102
-37 -156 -32 -137 -42 -151 -109 -155 -223 -13 -436 -104 -563 -241 -115 -125
-147 -195 -150 -327 -2 -75 0 -84 26 -117 26 -34 32 -37 80 -37 108 0 257 61
402 165 109 79 109 79 101 19 -4 -27 -10 -74 -13 -104 -8 -82 0 -85 132 -48
141 39 147 41 110 45 -60 7 -73 13 -83 41 -17 48 18 232 78 412 44 130 44 130
90 130 48 0 50 9 9 33 -39 22 -41 9 55 262 42 110 76 205 76 212 0 23 -26 28
-142 28 -88 0 -118 -3 -118 -12z m-60 -530 c0 -28 -67 -212 -103 -283 -35 -70
-109 -140 -240 -227 -55 -37 -78 -46 -126 -50 -78 -7 -97 5 -117 74 -21 72
-15 142 19 216 28 62 110 156 170 193 79 51 227 91 340 93 48 1 57 -2 57 -16z"/>
<path d="M1365 1123 c-127 -38 -175 -59 -240 -101 -68 -45 -216 -183 -266
-249 -24 -32 -26 -33 -139 -44 -133 -12 -160 -21 -160 -49 0 -24 -3 -24 85 -5
79 17 141 19 149 6 3 -5 -19 -57 -49 -117 -58 -114 -110 -261 -151 -426 -38
-152 -46 -141 104 -133 70 3 137 8 150 11 40 8 23 24 -27 24 -70 0 -78 13 -63
103 30 172 115 464 154 529 l19 30 92 -7 c51 -3 102 -13 114 -21 12 -7 29 -11
37 -8 18 7 30 35 19 45 -7 6 -186 29 -228 29 -26 0 -16 33 29 101 80 119 146
169 252 189 73 14 162 0 189 -30 38 -42 62 -16 72 80 l6 60 -49 -1 c-27 0 -71
-8 -99 -16z"/>
<path d="M1813 729 c-94 -16 -247 -85 -334 -151 -217 -165 -273 -246 -286
-409 -6 -78 2 -98 59 -139 32 -24 51 -30 91 -30 133 0 438 129 556 236 87 79
155 223 155 333 1 84 -17 114 -87 147 -55 25 -72 27 -154 13z m-12 -104 c77
-28 112 -77 111 -160 -1 -64 -27 -125 -89 -200 -121 -148 -287 -212 -408 -156
-67 31 -80 53 -80 135 0 60 5 81 32 136 36 74 57 99 133 159 115 91 210 118
301 86z"/>
<path d="M2755 725 c-148 -32 -310 -127 -464 -269 -91 -85 -141 -194 -141
-308 0 -46 5 -62 26 -88 60 -71 125 -77 293 -24 184 57 346 147 425 234 70 77
134 255 121 335 -9 57 -30 83 -88 111 -58 27 -86 28 -172 9z m6 -100 c78 -28
112 -77 111 -161 0 -66 -26 -122 -89 -199 -122 -149 -286 -212 -408 -156 -67
31 -80 53 -80 135 0 59 5 82 31 136 64 134 237 256 365 259 15 1 46 -6 70 -14z"/>
<path d="M4546 724 c-123 -27 -205 -86 -246 -175 -51 -112 -7 -172 169 -230
53 -17 108 -38 123 -45 74 -38 34 -154 -68 -201 -48 -22 -66 -25 -124 -21 -44
3 -86 14 -117 29 -42 21 -49 29 -53 61 -4 31 -7 35 -20 25 -21 -16 -60 -81
-60 -100 0 -42 173 -78 289 -60 96 15 155 45 227 118 65 64 84 105 84 177 0
61 -28 82 -189 138 -79 27 -153 57 -163 66 -23 22 -23 61 1 100 42 69 241 105
321 58 24 -14 36 -28 38 -47 4 -35 11 -34 49 6 35 36 54 82 32 75 -8 -3 -33 4
-56 14 -59 26 -154 31 -237 12z"/>
</g>
</svg>
